<svg t="1670376696982" class="icon" viewBox="0 0 1024 1024" version="1.1" xmlns="http://www.w3.org/2000/svg" p-id="4940" width="64" height="64"><path d="M868.3 121.6H155.7c-43.9 0-79.7 35.8-79.7 79.7v424.5c0 43.9 35.8 79.7 79.7 79.7H476v121.8H257.5c-19.9 0-36 16.1-36 36s16.1 36 36 36h488.3c19.9 0 36-16.1 36-36s-16.1-36-36-36H548V705.5h320.3c43.9 0 79.7-35.8 79.7-79.7V201.3c0-43.9-35.8-79.7-79.7-79.7z m7.7 504.2c0 4.2-3.5 7.7-7.7 7.7H155.7c-4.2 0-7.7-3.5-7.7-7.7V201.3c0-4.2 3.5-7.7 7.7-7.7h712.6c4.2 0 7.7 3.5 7.7 7.7v424.5z" p-id="4941"></path></svg>
